<?xml version="1.0" encoding="UTF-8" standalone="no"?>
<svg
   fill="black"
   role="img"
   viewBox="0 0 24 24"
   version="1.1"
   id="svg1"
   sodipodi:docname="py.svg"
   inkscape:version="1.3.2 (091e20ef0f, 2023-11-25, custom)"
   xmlns:inkscape="http://www.inkscape.org/namespaces/inkscape"
   xmlns:sodipodi="http://sodipodi.sourceforge.net/DTD/sodipodi-0.dtd"
   xmlns="http://www.w3.org/2000/svg"
   xmlns:svg="http://www.w3.org/2000/svg">
  <defs
     id="defs1" />
  <sodipodi:namedview
     id="namedview1"
     pagecolor="#505050"
     bordercolor="#ffffff"
     borderopacity="1"
     inkscape:showpageshadow="0"
     inkscape:pageopacity="0"
     inkscape:pagecheckerboard="1"
     inkscape:deskcolor="#505050"
     inkscape:zoom="32"
     inkscape:cx="1.9375"
     inkscape:cy="12.640625"
     inkscape:window-width="1757"
     inkscape:window-height="1072"
     inkscape:window-x="506"
     inkscape:window-y="140"
     inkscape:window-maximized="0"
     inkscape:current-layer="svg1" />
  <title
     id="title1">Python</title>
  <path
     id="path1"
     style="fill:#fbcf53;fill-opacity:1"
     d="m 15.628906,3.484375 c -0.0083,0.00633 -0.0137,0.014717 -0.02148,0.021484 0.0024,-0.00171 0.0055,-0.00215 0.0078,-0.00391 0.0045,-0.00343 0.03003,-0.022258 0.01367,-0.017578 z m 2.970703,2.5859375 v 3.0605469 l -0.01953,0.2089844 -0.04102,0.2792968 -0.06836,0.3203125 -0.101562,0.3496089 -0.148438,0.361329 -0.201172,0.359375 -0.269531,0.349609 -0.330078,0.320313 -0.410156,0.28125 -0.5,0.208984 -0.589844,0.140625 -0.689453,0.04883 H 9.390625 l -0.1308594,0.0098 -0.2089844,0.02148 -0.2617187,0.03906 -0.2988281,0.06055 -0.3300782,0.09961 -0.3496093,0.140625 -0.3496094,0.199219 -0.3300781,0.240234 -0.3007813,0.320312 -0.2597656,0.378907 -0.2109375,0.460937 -0.1289062,0.539063 -0.050781,0.640625 v 5.339843 l -0.00977,0.13086 0.019531,0.199219 0.041016,0.25 0.099609,0.300781 0.1601563,0.330078 0.25,0.339844 0.3398437,0.339843 0.4492188,0.330078 0.5898437,0.298829 0.7304688,0.25 L 9.75,23.820312 10.820312,23.960938 12.089844,24 l 0.839844,-0.0098 0.769531,-0.04102 0.710937,-0.06836 0.640625,-0.0918 0.580078,-0.128906 0.509766,-0.15039 0.439453,-0.169922 0.38086,-0.199219 0.308593,-0.240234 0.25,-0.25 0.169922,-0.291016 0.111328,-0.308594 0.04883,-0.339843 -0.01953,-0.361329 -0.0098,-2.759765 h -5.839843 v -0.820313 h 8.21875 l 0.160156,0.0098 0.240234,-0.01953 0.320313,-0.04883 0.359375,-0.0918 0.400391,-0.158203 0.419921,-0.240235 0.419922,-0.330078 0.400391,-0.451172 0.359375,-0.570312 0.320312,-0.708985 0.240235,-0.859375 L 24,13.259766 24.060547,12.029297 24.009766,10.800781 23.869141,9.7597656 23.660156,8.8808594 23.380859,8.1503906 23.060547,7.5605469 22.710938,7.0898438 22.349609,6.7402344 21.990234,6.4707031 21.640625,6.2890625 21.320312,6.1699219 21.039062,6.109375 20.830078,6.0800781 20.689453,6.0703125 Z m -3.289062,13.9804685 0.410156,0.08008 0.330078,0.228516 0.228516,0.330078 0.08008,0.410156 -0.08008,0.410157 -0.228516,0.330078 -0.330078,0.230468 -0.410156,0.08008 -0.410156,-0.08008 -0.330079,-0.230468 -0.230468,-0.330078 -0.08008,-0.410157 0.08008,-0.410156 0.230468,-0.330078 0.330079,-0.228516 z" />
  <path
     id="path1-5"
     style="fill:#3c6b96;fill-opacity:1;opacity:1"
     d="m 11.913224,5.5556952e-4 -0.839843,0.0195313005 -0.769532,0.0410156 -0.7089849,0.058594 -0.6406252,0.099609 -0.580078,0.1210938 -0.509766,0.1503906 -0.439453,0.1796875 -0.380859,0.1992188 -0.310547,0.23046873 -0.25,0.2597656 -0.169922,0.28125 -0.109375,0.3085938 -0.05078,0.3398437 0.02148,0.3710938 0.0098,2.75 H 12.024583 V 6.24079 H 3.8644259 l -0.06055,-0.00977 h -0.160156 l -0.240234,0.00977 -0.31836,0.048828 -0.361328,0.1015625 -0.40039,0.1582031 -0.41995,0.2402345 -0.419922,0.3300782 -0.398438,0.4414062 -0.36132793,0.568359 -0.32031204,0.710938 -0.240235,0.869141 -0.158203,1.0410155 -0.06055,1.21875 0.04883,1.230469 0.140626,1.050781 0.210937,0.878906 0.27929704,0.730469 0.320312,0.589844 0.34960993,0.460937 0.359375,0.359375 0.361328,0.259766 0.349609,0.179688 0.320313,0.121093 0.279297,0.07031 0.210937,0.0293 h 2.228516 v -3.060547 l 0.02148,-0.208985 0.03906,-0.269531 0.07031,-0.320312 0.09961,-0.351563 0.15039,-0.369141 0.199219,-0.359374 0.271484,-0.34961 0.330078,-0.320312 0.408203,-0.271485 0.5,-0.21875 0.591797,-0.140625 0.689453,-0.04883 h 5.9687511 l 0.210938,-0.02148 0.259766,-0.03906 0.300781,-0.07031 0.330078,-0.09961 0.349609,-0.140625 0.34961,-0.189453 0.330078,-0.25 0.300781,-0.310547 0.259766,-0.378906 0.208984,-0.4609375 0.130859,-0.550782 0.04883,-0.628906 V 3.1607119 L 17.835102,3.0298525 17.813622,2.8306337 17.774562,2.5708681 17.674952,2.2700869 17.514796,1.9400087 17.264796,1.600165 16.924952,1.2603213 16.47378,0.94000867 15.883937,0.64118057 15.153468,0.37946187 14.25503,0.18024307 13.184718,0.04938367 Z M 8.6944729,1.850165 l 0.410157,0.089844 0.330078,0.2207032 0.2285152,0.3300781 0.08008,0.4101563 -0.08008,0.4101559 -0.2285152,0.3398438 -0.330078,0.21875 -0.410157,0.089844 -0.410156,-0.089844 -0.330078,-0.21875 L 7.7237699,3.3111025 7.6436919,2.9009463 7.7237699,2.49079 7.9542389,2.1607119 8.2843169,1.9400087 Z" />
</svg>
